<svg width="18" height="18" viewBox="0 0 18 18" fill="none" xmlns="http://www.w3.org/2000/svg">
<g clip-path="url(#clip0_942_1002)">
<path fill-rule="evenodd" clip-rule="evenodd" d="M14.7323 0.801744C14.523 0.875244 14.3648 1.05749 14.2665 1.33649C13.938 2.27024 13.5165 2.69324 12.588 3.01649C12.1995 3.15224 12.0165 3.38699 12.0165 3.74999C12.0165 4.11299 12.1995 4.34774 12.588 4.48349C13.5158 4.80674 13.938 5.22974 14.2665 6.16199C14.403 6.55049 14.637 6.73349 15 6.73349C15.363 6.73349 15.597 6.55049 15.7335 6.16199C16.062 5.22974 16.4843 4.80674 17.412 4.48349C17.8005 4.34774 17.9835 4.11299 17.9835 3.74999C17.9835 3.38699 17.8005 3.15224 17.412 3.01649C16.4835 2.69324 16.062 2.27024 15.7335 1.33649C15.5648 0.857993 15.1703 0.646494 14.7323 0.801744ZM7.24505 2.28224C5.78119 2.43224 4.41397 3.08287 3.3743 4.12424C2.0948 5.40374 1.4378 7.10174 1.5113 8.93999C1.57205 10.458 1.9673 11.8177 2.68355 12.975C3.2968 13.9605 4.13147 14.7893 5.12123 15.3956C6.11099 16.002 7.22854 16.3691 8.38505 16.4677C9.10355 16.5307 9.30455 16.497 9.5258 16.2757C9.71105 16.0905 9.75005 15.9442 9.75005 15.4297V15H10.0575C10.7385 15 11.4825 14.8815 12.132 14.6692C12.741 14.4705 13.563 14.0332 14.04 13.6545C15.2408 12.6997 16.0703 11.3587 16.362 9.89999C16.4963 9.23024 16.53 8.45699 16.4505 7.87799L16.4325 7.74299L16.2563 7.86224C15.5558 8.33849 14.5875 8.37149 13.8668 7.94474C13.626 7.80224 13.2735 7.46024 13.11 7.21124C13.0142 7.0544 12.9338 6.88863 12.87 6.71624C12.66 6.12524 12.624 6.09074 11.991 5.86574C11.5369 5.69481 11.1463 5.38849 10.872 4.98824C10.6303 4.61679 10.5026 4.18265 10.5049 3.73946C10.5072 3.29627 10.6392 2.86345 10.8848 2.49449L11.0063 2.31599L10.9103 2.29574C10.7633 2.26349 7.54955 2.25224 7.24505 2.28224ZM6.8258 7.60124C7.06055 7.70849 7.2923 7.93874 7.4003 8.17199C7.4738 8.32949 7.48505 8.39174 7.48505 8.62499C7.48505 8.85749 7.4738 8.91974 7.40105 9.07499C7.27793 9.32413 7.0767 9.52615 6.82805 9.65024C6.67055 9.72374 6.6083 9.73499 6.37505 9.73499C6.14255 9.73499 6.0803 9.72374 5.92505 9.65099C5.67592 9.52787 5.47389 9.32664 5.3498 9.07799C5.2763 8.92049 5.26505 8.85824 5.26505 8.62499C5.26505 8.38499 5.27555 8.33324 5.35805 8.15999C5.5628 7.73024 5.9543 7.49024 6.4208 7.50974C6.58805 7.51649 6.6923 7.54049 6.8258 7.60124ZM12.0758 7.60124C12.3105 7.70849 12.5423 7.93874 12.6503 8.17199C12.7238 8.32949 12.735 8.39174 12.735 8.62499C12.735 8.85749 12.7238 8.91974 12.651 9.07499C12.5279 9.32413 12.3267 9.52615 12.078 9.65024C11.9205 9.72374 11.8583 9.73499 11.625 9.73499C11.3925 9.73499 11.3303 9.72374 11.175 9.65099C10.9259 9.52787 10.7239 9.32664 10.5998 9.07799C10.5263 8.92049 10.515 8.85824 10.515 8.62499C10.515 8.38499 10.5255 8.33324 10.608 8.15999C10.8128 7.73024 11.2043 7.49024 11.6708 7.50974C11.838 7.51649 11.9423 7.54049 12.0758 7.60124Z" fill="#4B5565"/>
</g>
<defs>
<clipPath id="clip0_942_1002">
<rect width="18" height="18" fill="white"/>
</clipPath>
</defs>
</svg>
