<svg width="20" height="20" viewBox="0 0 20 20" fill="none" xmlns="http://www.w3.org/2000/svg">
<path fill-rule="evenodd" clip-rule="evenodd" d="M9.254 0.00746139C7.145 0.192461 5.275 0.933461 3.693 2.20846C2.018 3.55946 0.785 5.48846 0.277 7.55446C0.0609999 8.43546 0 8.96446 0 9.98346C0 11.0025 0.0609999 11.5315 0.277 12.4125C1.163 16.0195 4.116 18.9145 7.734 19.7235C8.578 19.9125 9.021 19.9595 9.974 19.9595C10.927 19.9595 11.37 19.9125 12.214 19.7235C15.832 18.9145 18.785 16.0195 19.671 12.4125C19.884 11.5435 19.947 10.9995 19.949 10.0035C19.95 9.02746 19.906 8.59946 19.714 7.74346C19.256 5.69446 18.056 3.71846 16.454 2.37446C14.63 0.843461 12.539 0.0534615 10.194 0.00646146C9.88073 -0.00247519 9.56726 -0.00214179 9.254 0.00746139ZM10.794 2.02446C13.582 2.33546 15.968 4.01446 17.174 6.51246C17.6993 7.59472 17.9722 8.78207 17.972 9.98508C17.9718 11.1881 17.6986 12.3754 17.173 13.4575C16.5178 14.8107 15.4954 15.9525 14.2225 16.7525C12.9496 17.5526 11.4775 17.9788 9.974 17.9825C8.46989 17.9794 6.99699 17.5532 5.72373 16.7525C4.45048 15.9517 3.42827 14.8088 2.774 13.4545C2.24887 12.3727 1.97603 11.1859 1.97603 9.98346C1.97603 8.78099 2.24887 7.5942 2.774 6.51246C3.55804 4.88246 4.873 3.5675 6.503 2.78346C7.826 2.14346 9.389 1.86746 10.794 2.02446ZM13.994 6.09946C13.9045 6.12571 13.8175 6.15985 13.734 6.20146C13.657 6.24046 12.46 7.40446 11.074 8.78746L8.553 11.3035L7.474 10.2205C6.259 9.00246 6.161 8.92946 5.734 8.92946C5.444 8.92846 5.275 8.99646 5.06 9.19746C4.90426 9.3436 4.80075 9.53679 4.76534 9.7474C4.72994 9.95802 4.7646 10.1744 4.864 10.3635C5 10.6255 7.871 13.4935 8.122 13.6195C8.328 13.7225 8.745 13.7335 8.965 13.6415C9.156 13.5635 14.981 7.75846 15.1 7.52846C15.1839 7.35676 15.2187 7.16519 15.2006 6.97493C15.1824 6.78468 15.1119 6.60316 14.997 6.45046C14.796 6.18646 14.311 6.01646 13.994 6.09946Z" fill="#C3CBD5"/>
</svg>
