<svg width="24" height="24" viewBox="0 0 24 24" fill="none" xmlns="http://www.w3.org/2000/svg">
<path fill-rule="evenodd" clip-rule="evenodd" d="M11.0798 2.04502C9.20582 2.21002 7.35682 2.94902 5.79982 4.15402C5.36282 4.49302 4.49282 5.36302 4.15382 5.80002C2.35382 8.12602 1.64882 10.995 2.17782 13.846C2.46782 15.412 3.13682 16.886 4.15382 18.2C4.49282 18.637 5.36282 19.507 5.79982 19.846C8.24082 21.735 11.2528 22.412 14.2398 21.741C16.7268 21.182 18.9918 19.597 20.3848 17.44C21.1908 16.193 21.6678 14.913 21.9058 13.36C22.0038 12.719 22.0038 11.281 21.9058 10.64C21.6208 8.78202 20.9698 7.25202 19.8458 5.80002C19.5068 5.36302 18.6368 4.49302 18.1998 4.15402C16.1328 2.55502 13.6458 1.81802 11.0798 2.04502ZM12.8318 4.04202C14.3716 4.21418 15.8309 4.82001 17.0398 5.78902C17.3938 6.07502 18.0668 6.76102 18.3258 7.10002C19.4034 8.50701 19.9913 10.2278 19.9998 12C19.9913 13.8341 19.3606 15.611 18.2108 17.04C17.9248 17.394 17.2388 18.067 16.8998 18.326C15.4928 19.4036 13.772 19.9915 11.9998 20C10.2276 19.9915 8.50681 19.4036 7.09982 18.326C6.76082 18.067 6.07482 17.394 5.78882 17.04C4.83284 15.8617 4.23214 14.4355 4.057 12.9283C3.88186 11.4211 4.13951 9.89516 4.79982 8.52902C5.16187 7.75544 5.65554 7.05063 6.25882 6.44602C6.90654 5.76253 7.67515 5.2048 8.52582 4.80102C9.86324 4.15434 11.3539 3.89159 12.8318 4.04202ZM11.4198 6.54702C10.7408 6.69702 10.2808 6.88902 9.86982 7.19302C9.35782 7.57302 8.83082 8.25702 8.61982 8.81602C8.39282 9.41902 8.32582 10.214 8.47482 10.54C8.53988 10.6788 8.63616 10.8007 8.75614 10.8962C8.87612 10.9916 9.01655 11.058 9.16645 11.0901C9.31634 11.1223 9.47164 11.1193 9.6202 11.0815C9.76877 11.0436 9.90656 10.9719 10.0228 10.872C10.2498 10.673 10.3138 10.527 10.3788 10.057C10.4538 9.52802 10.5668 9.27502 10.8608 8.98102C11.6958 8.14602 13.1378 8.46902 13.5188 9.57602C13.6838 10.058 13.6608 10.405 13.4308 10.872C13.2648 11.21 12.9968 11.443 12.4888 11.693C11.9648 11.95 11.6268 12.229 11.3678 12.615C11.1278 12.974 11.0398 13.252 11.0108 13.742C10.9938 14.024 11.0048 14.153 11.0578 14.313C11.1508 14.595 11.4168 14.858 11.6898 14.939C11.9468 15.015 12.0528 15.015 12.3098 14.939C12.7188 14.818 12.9998 14.403 12.9998 13.92C12.9998 13.69 13.0728 13.613 13.4508 13.444C14.5128 12.968 15.2688 12.047 15.5448 10.894C15.6408 10.493 15.6318 9.75402 15.5268 9.32002C15.2618 8.23002 14.6188 7.40802 13.6278 6.89602C13.1068 6.62702 12.6348 6.51902 12.0048 6.52502C11.8096 6.52314 11.6144 6.53048 11.4198 6.54702ZM11.6728 16.063C11.3038 16.177 10.9998 16.609 10.9998 17.02C10.9998 17.415 11.3188 17.831 11.7088 17.944C11.866 17.9937 12.0331 18.0033 12.195 17.9718C12.3568 17.9404 12.5082 17.8689 12.6352 17.7639C12.7623 17.6588 12.8611 17.5237 12.9225 17.3707C12.9839 17.2177 13.006 17.0518 12.9868 16.888C12.9674 16.7008 12.8944 16.5231 12.7764 16.3764C12.6584 16.2296 12.5006 16.1201 12.3218 16.061C12.1118 15.987 11.9198 15.987 11.6728 16.063Z" fill="#364152"/>
</svg>
