<svg width="48" height="48" viewBox="0 0 48 48" fill="none" xmlns="http://www.w3.org/2000/svg">
<g clip-path="url(#clip0_795_3101)">
<path d="M22.8956 4.41588L9 28.4833H38.9062L25.0106 4.41588C24.5412 3.60096 23.3651 3.60096 22.8956 4.41588Z" fill="url(#paint0_linear_795_3101)"/>
<path d="M23.0383 4.3324L16.95 14.8776H31.144L25.0556 4.3324C24.6071 3.55587 23.4851 3.55587 23.0366 4.3324H23.0383Z" fill="url(#paint1_linear_795_3101)"/>
<path d="M38.9062 28.4834V58.3896H9V28.4834H38.9062ZM23.9004 33.0225C20.4571 33.0225 17.6653 35.8136 17.665 39.2568V49.0234H30.1357V39.2568C30.1355 35.8135 27.3438 33.0225 23.9004 33.0225Z" fill="url(#paint2_linear_795_3101)"/>
<circle cx="28.0555" cy="41.0899" r="0.993196" fill="#F57141"/>
</g>
<defs>
<linearGradient id="paint0_linear_795_3101" x1="13.3125" y1="18.8903" x2="36.3281" y2="18.7497" gradientUnits="userSpaceOnUse">
<stop stop-color="#FCE0AB"/>
<stop offset="0.372173" stop-color="#FEF2DC"/>
<stop offset="1" stop-color="#FEDFA5"/>
</linearGradient>
<linearGradient id="paint1_linear_795_3101" x1="20.019" y1="10.8127" x2="28.4063" y2="11.1563" gradientUnits="userSpaceOnUse">
<stop stop-color="#F89570"/>
<stop offset="1" stop-color="#F46734"/>
</linearGradient>
<linearGradient id="paint2_linear_795_3101" x1="9" y1="39.5601" x2="41.7188" y2="39.2811" gradientUnits="userSpaceOnUse">
<stop stop-color="#F46734"/>
<stop offset="0.389223" stop-color="#F89570"/>
<stop offset="1" stop-color="#F46734"/>
</linearGradient>
<clipPath id="clip0_795_3101">
<rect width="48" height="48" fill="white"/>
</clipPath>
</defs>
</svg>
